Coordinates
version=1
nRows=6
nColumns=36
inDegrees=yes

Units are S.I. units (second, meters, Newtons, ...)
If the header above contains a line with 'inDegrees', this indicates whether rotational values are in degrees (yes) or radians (no).

endheader
time	pelvis_tilt	pelvis_list	pelvis_rotation	pelvis_tx	pelvis_ty	pelvis_tz	hip_flexion_r	hip_adduction_r	hip_rotation_r	knee_angle_r	knee_angle_r_beta	ankle_angle_r	subtalar_angle_r	mtp_angle_r	hip_flexion_l	hip_adduction_l	hip_rotation_l	knee_angle_l	knee_angle_l_beta	ankle_angle_l	subtalar_angle_l	mtp_angle_l	lumbar_extension	lumbar_bending	lumbar_rotation	arm_flex_r	arm_add_r	arm_rot_r	elbow_flex_r	pro_sup_r	arm_flex_l	arm_add_l	arm_rot_l	elbow_flex_l	pro_sup_l
      0.00000000	    -14.99737782	     -3.79005534	     -9.00538199	      0.74768530	      0.79756489	      0.08694812	     44.52061413	     14.36087266	      2.56568341	     57.68318454	      1.00676149	     22.55748258	     -6.82010713	     -6.97961982	     82.39123522	     -5.48967517	      9.91445390	     46.54592439	      0.81237963	     10.64243856	     -9.75226919	     -6.97961982	    -14.67553959	     14.08485381	     -0.73228218	     55.92944918	     -5.35905692	     74.61431735	    114.54563642	     83.44009627	     45.40148533	     -9.37786565	     59.81681004	    107.91778019	     96.95032045
      0.01666670	    -19.07664915	     -4.68153744	    -11.35035981	      0.75165325	      0.77958875	      0.08949916	     53.35487709	     16.69001782	     -0.27290033	     63.58423887	      1.10975432	     19.62726403	     -9.73028553	     -7.02375414	     88.90392879	     -7.05698959	     15.48118570	     46.05274519	      0.80377203	     10.02857897	     -8.34198046	     -7.02375414	    -12.97470257	     15.36195355	      5.42096504	     55.92948558	     -5.76836932	     78.95110484	    118.48476036	     95.68449483	     47.37946621	     -7.39051371	     63.43583378	    110.66025429	    108.31672267
      0.03333330	    -20.58499595	     -1.84748097	    -11.50393814	      0.75223874	      0.77243933	      0.09119943	     58.51742174	     13.51307902	     -2.66906407	     70.05385049	      1.22267034	     25.36010619	     -6.40521236	     -7.03708304	     90.62246131	     -6.61150558	     14.89099726	     46.25965448	      0.80738328	      6.70483501	     -9.01847361	     -7.03708304	    -10.96211560	     12.09741670	      6.00796644	     52.95956346	     -4.10163038	     77.06420197	    119.26298522	     96.19936609	     46.89478331	     -6.40747532	     65.55742102	    111.27464963	    109.53683048
      0.05000000	    -21.53229195	     -0.09260953	    -10.76993289	      0.75537793	      0.76514459	      0.09122796	     60.39946938	     11.81819656	     -3.02012182	     72.93760912	      1.27300143	     31.18548236	     -5.15724981	     -7.14573793	     92.01751761	     -5.75027651	     12.82139734	     47.90259726	      0.83605804	      5.48982027	     -6.91669864	     -7.14573793	     -9.32992223	     10.03464211	      6.50352089	     50.07194743	     -4.86280847	     75.47211377	    118.80888015	    100.91460186	     46.48578425	     -4.42636263	     67.67981606	    108.66353188	    112.71611925
      0.06666670	    -22.55395300	      0.68757548	     -9.88263175	      0.74909712	      0.75765080	      0.08808652	     61.87792623	     10.84881384	     -3.31963759	     74.71300524	      1.30398794	     35.04294450	     -4.31075486	     -7.15339005	     93.89645129	     -4.88221309	     11.76394139	     49.16686965	      0.85812376	      4.86391661	     -5.16309970	     -7.15339005	     -8.53402263	      9.57848436	      6.10520703	     50.87239772	     -5.09645072	     76.21793101	    118.22951144	    101.08896737	     47.17639484	     -3.50538333	     66.64171697	    107.79379390	    112.48267991
      0.08333330	    -23.79712500	      0.85990391	     -9.03770791	      0.72973845	      0.74969801	      0.08862880	     64.28211420	     10.09867541	     -3.95440758	     76.15184051	      1.32910035	     36.23305115	     -4.31733382	     -7.16382060	     96.44305211	     -3.97230108	     12.02904680	     49.82563952	      0.86962146	      2.93794767	     -4.61322889	     -7.16382060	     -8.44500699	     10.05597631	      5.81569558	     52.84350076	     -5.25488402	     76.91838528	    116.26901198	    100.99277160	     49.61697923	     -3.63298102	     65.23230032	    107.13711941	    111.83024141
